<?xml version="1.0" standalone="no"?><!DOCTYPE svg PUBLIC "-//W3C//DTD SVG 1.1//EN" "http://www.w3.org/Graphics/SVG/1.1/DTD/svg11.dtd"><svg class="icon" width="200px" height="200.00px" viewBox="0 0 1024 1024" version="1.1" xmlns="http://www.w3.org/2000/svg"><path d="M329.344 165.333333A42.666667 42.666667 0 0 1 362.666667 149.333333h298.666666a42.666667 42.666667 0 0 1 33.322667 16l72.533333 90.666667H874.666667a106.666667 106.666667 0 0 1 106.666666 106.474667V768.213333A106.56 106.56 0 0 1 874.752 874.666667H149.205333A106.538667 106.538667 0 0 1 42.666667 768.192V362.453333A106.666667 106.666667 0 0 1 149.333333 256h107.498667l72.533333-90.666667zM383.168 234.666667l-72.533333 90.666666A42.666667 42.666667 0 0 1 277.333333 341.333333H149.333333a21.333333 21.333333 0 0 0-21.333333 21.141334V768.213333c0 11.626667 9.514667 21.141333 21.205333 21.141334h725.546667c11.733333 0 21.248-9.514667 21.248-21.141334V362.453333A21.333333 21.333333 0 0 0 874.666667 341.333333h-128a42.666667 42.666667 0 0 1-33.322667-16l-72.533333-90.666666H383.189333zM512 725.333333a192 192 0 1 1 0-384 192 192 0 0 1 0 384z m0-85.333333a106.666667 106.666667 0 1 0 0-213.333333 106.666667 106.666667 0 0 0 0 213.333333z" fill="#000000" /></svg>